<svg width="48px" height="48px" viewBox="0 0 48 48" version="1.1" xmlns="http://www.w3.org/2000/svg" xmlns:xlink="http://www.w3.org/1999/xlink">
                                <title>Landing Page Checklist</title>
                                <g id="Landin'-Cool" stroke="none" stroke-width="1" fill="none" fill-rule="evenodd">
                                    <g id="Square-Logo" transform="translate(3.000000, 3.000000)">
                                        <rect id="Rectangle" fill="#0080FE" x="0" y="0" width="42" height="42" rx="11"></rect>
                                        <g id="cool-landing-page-logo" transform="translate(21.000000, 19.762563) rotate(90.000000) translate(-21.000000, -19.762563) translate(7.291667, 6.054230)" fill-rule="nonzero">
                                            <path d="M23.4659406,0.145833333 C22.0267932,0.170998017 20.611777,0.520964059 19.3259349,1.16975195 L2.48234976,9.3468798 C-0.651010772,10.8827577 -0.353270631,13.7980816 3.10618624,14.5660205 L11.0742795,16.3720992 L12.8890766,24.3216896 C13.640516,27.7347516 16.561205,28.0902789 18.09244,24.9474176 L26.2448486,8.15230808 C28.4140982,3.35980011 26.9821099,0.216938793 23.4659406,0.145833333 Z" id="Path" fill="#FFFFFF"></path>
                                            <path d="M22.9944726,2.82231694 C24.8617568,2.55407638 25.1305326,3.90939708 23.7866538,6.86004318 L15.695089,23.40625 L13.7712204,14.7237268 C13.6497014,14.1972547 13.2377861,13.7861595 12.7102635,13.6648825 L4.01041667,11.7307269 L20.6320752,3.65527445 C21.3804784,3.2776346 22.1744649,2.99768299 22.9944726,2.82231694 Z" id="Path" fill="#6AB5FF"></path>
                                        </g>
                                    </g>
                                </g>
                            </svg>
